<svg width="39" height="49" viewBox="0 0 39 49" fill="none" xmlns="http://www.w3.org/2000/svg">
<path d="M19.2202 1.00746C16.667 0.887736 14.117 1.30233 11.7333 2.22471C9.34965 3.14708 7.18486 4.55692 5.37752 6.36397C3.57018 8.17101 2.16012 10.3355 1.2376 12.7187C0.315076 15.102 -0.0995845 17.6516 0.0201613 20.2044C0.0201613 26.2514 4.82016 32.2025 7.22016 34.6021C9.62016 37.0017 19.2202 48.9998 19.2202 48.9998C19.2202 48.9998 28.8202 37.0017 31.2202 34.6021C33.6202 32.2025 38.4202 26.2514 38.4202 20.2044C38.5399 17.6516 38.1252 15.102 37.2027 12.7187C36.2802 10.3355 34.8701 8.17101 33.0628 6.36397C31.2555 4.55692 29.0907 3.14708 26.707 2.22471C24.3233 1.30233 21.7733 0.887736 19.2202 1.00746V1.00746ZM19.2202 28.0031C17.6775 28.0031 16.1694 27.5458 14.8867 26.6888C13.604 25.8319 12.6043 24.6139 12.0139 23.1888C11.4235 21.7638 11.2691 20.1957 11.57 18.6829C11.871 17.1701 12.6139 15.7805 13.7047 14.6898C14.7956 13.5992 16.1854 12.8564 17.6985 12.5555C19.2115 12.2546 20.7798 12.409 22.2051 12.9993C23.6304 13.5896 24.8485 14.5891 25.7056 15.8716C26.5627 17.1541 27.0202 18.6619 27.0202 20.2044C27.0202 21.2285 26.8184 22.2427 26.4264 23.1888C26.0344 24.135 25.4599 24.9948 24.7356 25.7189C24.0113 26.4431 23.1514 27.0176 22.2051 27.4095C21.2588 27.8014 20.2445 28.0031 19.2202 28.0031V28.0031Z" fill="black"/>
<path d="M19.2202 1.00746C16.667 0.887736 14.117 1.30233 11.7333 2.22471C9.34965 3.14708 7.18486 4.55692 5.37752 6.36397C3.57018 8.17101 2.16012 10.3355 1.2376 12.7187C0.315076 15.102 -0.0995845 17.6516 0.0201613 20.2044C0.0201613 26.2514 4.82016 32.2025 7.22016 34.6021C9.62016 37.0017 19.2202 48.9998 19.2202 48.9998C19.2202 48.9998 28.8202 37.0017 31.2202 34.6021C33.6202 32.2025 38.4202 26.2514 38.4202 20.2044C38.5399 17.6516 38.1252 15.102 37.2027 12.7187C36.2802 10.3355 34.8701 8.17101 33.0628 6.36397C31.2555 4.55692 29.0907 3.14708 26.707 2.22471C24.3233 1.30233 21.7733 0.887736 19.2202 1.00746V1.00746ZM19.2202 28.0031C17.6775 28.0031 16.1694 27.5458 14.8867 26.6888C13.604 25.8319 12.6043 24.6139 12.0139 23.1888C11.4235 21.7638 11.2691 20.1957 11.57 18.6829C11.871 17.1701 12.6139 15.7805 13.7047 14.6898C14.7956 13.5992 16.1854 12.8564 17.6985 12.5555C19.2115 12.2546 20.7798 12.409 22.2051 12.9993C23.6304 13.5896 24.8485 14.5891 25.7056 15.8716C26.5627 17.1541 27.0202 18.6619 27.0202 20.2044C27.0202 21.2285 26.8184 22.2427 26.4264 23.1888C26.0344 24.135 25.4599 24.9948 24.7356 25.7189C24.0113 26.4431 23.1514 27.0176 22.2051 27.4095C21.2588 27.8014 20.2445 28.0031 19.2202 28.0031V28.0031Z" fill="#2C68B6"/>
<path d="M19.2202 1.00746C16.667 0.887736 14.117 1.30233 11.7333 2.22471C9.34965 3.14708 7.18486 4.55692 5.37752 6.36397C3.57018 8.17101 2.16012 10.3355 1.2376 12.7187C0.315076 15.102 -0.0995845 17.6516 0.0201613 20.2044C0.0201613 26.2514 4.82016 32.2025 7.22016 34.6021C9.62016 37.0017 19.2202 48.9998 19.2202 48.9998C19.2202 48.9998 28.8202 37.0017 31.2202 34.6021C33.6202 32.2025 38.4202 26.2514 38.4202 20.2044C38.5399 17.6516 38.1252 15.102 37.2027 12.7187C36.2802 10.3355 34.8701 8.17101 33.0628 6.36397C31.2555 4.55692 29.0907 3.14708 26.707 2.22471C24.3233 1.30233 21.7733 0.887736 19.2202 1.00746V1.00746ZM19.2202 28.0031C17.6775 28.0031 16.1694 27.5458 14.8867 26.6888C13.604 25.8319 12.6043 24.6139 12.0139 23.1888C11.4235 21.7638 11.2691 20.1957 11.57 18.6829C11.871 17.1701 12.6139 15.7805 13.7047 14.6898C14.7956 13.5992 16.1854 12.8564 17.6985 12.5555C19.2115 12.2546 20.7798 12.409 22.2051 12.9993C23.6304 13.5896 24.8485 14.5891 25.7056 15.8716C26.5627 17.1541 27.0202 18.6619 27.0202 20.2044C27.0202 21.2285 26.8184 22.2427 26.4264 23.1888C26.0344 24.135 25.4599 24.9948 24.7356 25.7189C24.0113 26.4431 23.1514 27.0176 22.2051 27.4095C21.2588 27.8014 20.2445 28.0031 19.2202 28.0031V28.0031Z" fill="#CE2576"/>
</svg>
