<svg viewBox="0 0 951 554" fill="none" xmlns="http://www.w3.org/2000/svg">
<path d="M475.5 553.986C738.111 553.986 951 524.039 951 487.099C951 450.158 738.111 420.211 475.5 420.211C212.889 420.211 0 450.158 0 487.099C0 524.039 212.889 553.986 475.5 553.986Z" fill="#EBF7FE"/>
<path d="M339.854 475.35H442.701L429.324 414.358H353.231L339.854 475.35Z" fill="#1F3669"/>
<path d="M590.777 404.038L191.751 404.038V205.963C191.751 192.138 197.238 178.88 207.005 169.104C216.772 159.328 230.019 153.836 243.831 153.836L538.711 153.836C552.524 153.836 565.77 159.328 575.537 169.104C585.304 178.88 590.791 192.138 590.791 205.963V404.038H590.777Z" fill="#1F3669"/>
<path d="M571.199 174.04H211.343V389.235H571.199V174.04Z" fill="#F3FAFE"/>
<path d="M251.84 366.642H350.166V289.236H251.84V366.642Z" fill="#CBECFC"/>
<path d="M366.509 322.927H485.571V289.236H366.509V322.927Z" fill="#CBECFC"/>
<path d="M366.509 365.596H485.571V331.905H366.509V365.596Z" fill="#CBECFC"/>
<path d="M251.825 244.772L530.701 244.772V205.723L251.825 205.723V244.772Z" fill="#CBECFC"/>
<path d="M251.825 273.487L530.701 273.487V257.398L251.825 257.398V273.487Z" fill="#CBECFC"/>
<path d="M293.538 487.099H489.018C489.014 482.478 487.178 478.047 483.912 474.781C480.646 471.515 476.218 469.681 471.602 469.681H310.94C306.326 469.684 301.902 471.521 298.639 474.786C295.376 478.052 293.542 482.48 293.538 487.099Z" fill="#4374B9"/>
<path d="M391.27 431.989C395.319 431.989 398.602 428.703 398.602 424.651C398.602 420.598 395.319 417.313 391.27 417.313C387.222 417.313 383.939 420.598 383.939 424.651C383.939 428.703 387.222 431.989 391.27 431.989Z" fill="#43BBEC"/>
<path d="M544.969 50.487L737.934 115.791C737.934 430.151 544.969 487.099 544.969 487.099C544.969 487.099 352.003 430.151 352.003 115.791L544.969 50.487Z" fill="#2F80ED"/>
<path d="M544.925 469.285C557.723 464.223 594.364 447.187 630.454 406.455C656.657 376.921 677.548 340.812 692.605 299.133C710.46 249.65 720.023 192.023 721.082 127.808L544.968 68.2161L368.882 127.808C369.941 192.688 379.702 250.809 397.909 300.66C413.179 342.466 434.381 378.603 460.951 408.109C496.899 447.979 532.34 464.365 544.925 469.285Z" fill="white"/>
<path d="M622.673 399.501L622.671 399.502C591.297 434.918 559.991 451.517 544.895 458.034C530.238 451.745 499.847 435.729 468.667 401.074L468.664 401.071C443.008 372.669 422.481 337.682 407.67 297.104L405.791 297.79L407.67 297.104C390.593 250.32 381.087 195.905 379.437 135.21L544.968 79.1919L710.498 135.126C708.864 195.173 699.527 249.096 682.8 295.529L684.681 296.206L682.8 295.529C668.213 336.023 647.98 370.985 622.673 399.501Z" stroke="#001733" stroke-width="4"/>
<g opacity="0.5">
<path d="M511.93 318.799L450.654 269.316C447.644 266.881 445.723 263.35 445.313 259.498C444.902 255.646 446.036 251.789 448.465 248.773C450.893 245.765 454.413 243.842 458.254 243.426C462.096 243.01 465.945 244.135 468.96 246.554L509.161 279.071C512.029 281.372 515.659 282.504 519.325 282.242C522.992 281.98 526.424 280.343 528.936 277.657L603.589 198.103C606.237 195.279 609.898 193.625 613.766 193.503C617.633 193.381 621.39 194.802 624.212 197.452C627.033 200.106 628.686 203.772 628.808 207.645C628.93 211.519 627.51 215.282 624.861 218.108L531.634 317.414C529.121 320.075 525.701 321.695 522.052 321.951C518.402 322.208 514.79 321.083 511.93 318.799Z" fill="black"/>
<path d="M511.93 318.799L450.654 269.316C447.644 266.881 445.723 263.35 445.313 259.498C444.902 255.646 446.036 251.789 448.465 248.773C450.893 245.765 454.413 243.842 458.254 243.426C462.096 243.01 465.945 244.135 468.96 246.554L509.161 279.071C512.029 281.372 515.659 282.504 519.325 282.242C522.992 281.98 526.424 280.343 528.936 277.657L603.589 198.103C606.237 195.279 609.898 193.625 613.766 193.503C617.633 193.381 621.39 194.802 624.212 197.452C627.033 200.106 628.686 203.772 628.808 207.645C628.93 211.519 627.51 215.282 624.861 218.108L531.634 317.414C529.121 320.075 525.701 321.695 522.052 321.951C518.402 322.208 514.79 321.083 511.93 318.799Z" fill="#2C68B6"/>
<path d="M511.93 318.799L450.654 269.316C447.644 266.881 445.723 263.35 445.313 259.498C444.902 255.646 446.036 251.789 448.465 248.773C450.893 245.765 454.413 243.842 458.254 243.426C462.096 243.01 465.945 244.135 468.96 246.554L509.161 279.071C512.029 281.372 515.659 282.504 519.325 282.242C522.992 281.98 526.424 280.343 528.936 277.657L603.589 198.103C606.237 195.279 609.898 193.625 613.766 193.503C617.633 193.381 621.39 194.802 624.212 197.452C627.033 200.106 628.686 203.772 628.808 207.645C628.93 211.519 627.51 215.282 624.861 218.108L531.634 317.414C529.121 320.075 525.701 321.695 522.052 321.951C518.402 322.208 514.79 321.083 511.93 318.799Z" fill="#CE2576"/>
</g>
<path d="M845.64 325.762H847.636L847.64 323.765L847.71 280.092L847.71 280.079C847.685 275.08 845.689 270.292 842.155 266.758C838.621 263.224 833.835 261.229 828.839 261.208H828.831H788.051C783.041 261.208 778.235 263.194 774.684 266.73C771.133 270.267 769.126 275.066 769.101 280.079V280.089V323.762V325.762H771.101H845.64ZM866.848 280.091V344.976H749.893V280.09C749.904 269.982 753.92 260.291 761.061 253.143C768.202 245.996 777.884 241.976 787.981 241.965H828.759C838.857 241.976 848.538 245.996 855.679 253.143C862.82 260.291 866.837 269.982 866.848 280.091Z" stroke="black" stroke-width="4"/>
<path d="M845.64 325.762H847.636L847.64 323.765L847.71 280.092L847.71 280.079C847.685 275.08 845.689 270.292 842.155 266.758C838.621 263.224 833.835 261.229 828.839 261.208H828.831H788.051C783.041 261.208 778.235 263.194 774.684 266.73C771.133 270.267 769.126 275.066 769.101 280.079V280.089V323.762V325.762H771.101H845.64ZM866.848 280.091V344.976H749.893V280.09C749.904 269.982 753.92 260.291 761.061 253.143C768.202 245.996 777.884 241.976 787.981 241.965H828.759C838.857 241.976 848.538 245.996 855.679 253.143C862.82 260.291 866.837 269.982 866.848 280.091Z" stroke="#2C68B6" stroke-width="4"/>
<path d="M845.64 325.762H847.636L847.64 323.765L847.71 280.092L847.71 280.079C847.685 275.08 845.689 270.292 842.155 266.758C838.621 263.224 833.835 261.229 828.839 261.208H828.831H788.051C783.041 261.208 778.235 263.194 774.684 266.73C771.133 270.267 769.126 275.066 769.101 280.079V280.089V323.762V325.762H771.101H845.64ZM866.848 280.091V344.976H749.893V280.09C749.904 269.982 753.92 260.291 761.061 253.143C768.202 245.996 777.884 241.976 787.981 241.965H828.759C838.857 241.976 848.538 245.996 855.679 253.143C862.82 260.291 866.837 269.982 866.848 280.091Z" stroke="#CE2576" stroke-width="4"/>
<path d="M863.155 485.099H753.599C732.245 485.099 714.932 467.772 714.932 446.395V341.689C714.932 320.312 732.245 302.985 753.599 302.985H863.155C884.508 302.985 901.821 320.312 901.821 341.689V446.395C901.821 467.772 884.508 485.099 863.155 485.099Z" stroke="black" stroke-width="4"/>
<path d="M863.155 485.099H753.599C732.245 485.099 714.932 467.772 714.932 446.395V341.689C714.932 320.312 732.245 302.985 753.599 302.985H863.155C884.508 302.985 901.821 320.312 901.821 341.689V446.395C901.821 467.772 884.508 485.099 863.155 485.099Z" stroke="#2C68B6" stroke-width="4"/>
<path d="M863.155 485.099H753.599C732.245 485.099 714.932 467.772 714.932 446.395V341.689C714.932 320.312 732.245 302.985 753.599 302.985H863.155C884.508 302.985 901.821 320.312 901.821 341.689V446.395C901.821 467.772 884.508 485.099 863.155 485.099Z" stroke="#CE2576" stroke-width="4"/>
<path d="M794.252 383.65C794.248 381.085 794.941 378.567 796.258 376.365C797.575 374.164 799.465 372.363 801.726 371.155C803.987 369.947 806.534 369.377 809.094 369.508C811.654 369.638 814.13 370.463 816.258 371.894C818.385 373.326 820.083 375.309 821.17 377.633C822.257 379.956 822.691 382.532 822.427 385.084C822.163 387.636 821.211 390.068 819.671 392.119C818.132 394.17 816.063 395.763 813.688 396.728V413.256C813.726 413.978 813.616 414.7 813.365 415.378C813.115 416.056 812.729 416.676 812.231 417.201C811.734 417.725 811.135 418.142 810.471 418.428C809.807 418.713 809.093 418.86 808.37 418.86C807.648 418.86 806.933 418.713 806.269 418.428C805.605 418.142 805.006 417.725 804.509 417.201C804.012 416.676 803.626 416.056 803.375 415.378C803.125 414.7 803.015 413.978 803.052 413.256V396.728C800.454 395.669 798.229 393.86 796.661 391.531C795.094 389.202 794.255 386.459 794.252 383.65Z" fill="black"/>
<path d="M794.252 383.65C794.248 381.085 794.941 378.567 796.258 376.365C797.575 374.164 799.465 372.363 801.726 371.155C803.987 369.947 806.534 369.377 809.094 369.508C811.654 369.638 814.13 370.463 816.258 371.894C818.385 373.326 820.083 375.309 821.17 377.633C822.257 379.956 822.691 382.532 822.427 385.084C822.163 387.636 821.211 390.068 819.671 392.119C818.132 394.17 816.063 395.763 813.688 396.728V413.256C813.726 413.978 813.616 414.7 813.365 415.378C813.115 416.056 812.729 416.676 812.231 417.201C811.734 417.725 811.135 418.142 810.471 418.428C809.807 418.713 809.093 418.86 808.37 418.86C807.648 418.86 806.933 418.713 806.269 418.428C805.605 418.142 805.006 417.725 804.509 417.201C804.012 416.676 803.626 416.056 803.375 415.378C803.125 414.7 803.015 413.978 803.052 413.256V396.728C800.454 395.669 798.229 393.86 796.661 391.531C795.094 389.202 794.255 386.459 794.252 383.65Z" fill="#2C68B6"/>
<path d="M794.252 383.65C794.248 381.085 794.941 378.567 796.258 376.365C797.575 374.164 799.465 372.363 801.726 371.155C803.987 369.947 806.534 369.377 809.094 369.508C811.654 369.638 814.13 370.463 816.258 371.894C818.385 373.326 820.083 375.309 821.17 377.633C822.257 379.956 822.691 382.532 822.427 385.084C822.163 387.636 821.211 390.068 819.671 392.119C818.132 394.17 816.063 395.763 813.688 396.728V413.256C813.726 413.978 813.616 414.7 813.365 415.378C813.115 416.056 812.729 416.676 812.231 417.201C811.734 417.725 811.135 418.142 810.471 418.428C809.807 418.713 809.093 418.86 808.37 418.86C807.648 418.86 806.933 418.713 806.269 418.428C805.605 418.142 805.006 417.725 804.509 417.201C804.012 416.676 803.626 416.056 803.375 415.378C803.125 414.7 803.015 413.978 803.052 413.256V396.728C800.454 395.669 798.229 393.86 796.661 391.531C795.094 389.202 794.255 386.459 794.252 383.65Z" fill="#CE2576"/>
<path d="M258.352 94.1454C258.352 94.1454 264.595 70.5772 275.966 68.6968C276.265 68.6392 276.572 68.6392 276.87 68.6968C276.317 68.899 275.797 69.1851 275.331 69.5451C266.615 74.2248 269.455 100.239 269.892 103.759C268.24 107.704 266.686 111.295 265.655 113.656C273.494 114.9 287.902 132.035 287.902 132.035C287.902 132.035 257.603 130.622 252.306 125.687C251.879 125.211 251.492 124.7 251.148 124.16C248.041 118.251 252.843 104.452 258.352 94.1454Z" fill="#FDC88B"/>
<path d="M293.807 60.4685C295.791 58.7021 297.362 56.5192 298.407 54.0754C299.452 51.6316 299.946 48.987 299.852 46.3304C299.457 37.6497 295.219 37.579 295.219 37.579C295.219 37.579 290.657 30.7644 280.826 34.1293C268.48 38.3707 275.543 58.3195 280.91 61.3309C286.278 64.3423 293.807 60.4685 293.807 60.4685Z" fill="#4F4F4F"/>
<path d="M309.387 130.155L310.926 135.556L287.944 144.265V132.134L309.387 130.155Z" fill="#1F3669"/>
<path d="M266.558 130.155L265.019 135.556L288 144.265V132.134L266.558 130.155Z" fill="#1F3669"/>
<path d="M315.164 131.696C321.252 129.434 328.992 128.741 331.761 136.206C334.529 143.671 330.871 152.734 309.951 156.735C294.979 159.562 261.544 162.149 261.544 162.149L260.019 154.105C260.019 154.105 311.096 133.209 315.164 131.696Z" fill="#1F3669"/>
<path d="M261.6 153.44C257.362 153.683 253.203 154.694 249.325 156.424C243.562 159.251 243.068 161.541 243.266 161.966C243.718 162.984 246.302 164.129 251.091 164.412C255.879 164.694 263.804 161.994 263.804 161.994C262.805 160.833 262.087 159.458 261.705 157.974C261.323 156.491 261.287 154.94 261.6 153.44Z" fill="#214081"/>
<path d="M260.668 131.696C254.58 129.434 246.854 128.741 244.071 136.206C241.288 143.671 244.961 152.734 265.895 156.735C280.867 159.562 314.302 162.149 314.302 162.149L315.813 154.105C315.813 154.105 264.75 133.209 260.668 131.696Z" fill="#2A437C"/>
<path d="M314.246 153.44C318.479 153.684 322.633 154.695 326.506 156.424C332.269 159.251 332.764 161.541 332.58 161.966C332.128 162.984 329.543 164.129 324.755 164.412C319.966 164.694 312.042 161.994 312.042 161.994C313.039 160.832 313.755 159.456 314.137 157.974C314.519 156.491 314.556 154.94 314.246 153.44Z" fill="#214081"/>
<path d="M275.302 69.7289C278.805 66.8165 295.077 66.4347 300.586 69.7289C310.474 74.451 305.982 104.339 305.982 104.339C308.055 113.6 309.649 122.963 310.756 132.389C303.826 135.324 296.387 136.871 288.862 136.941H287.916H286.969C279.444 136.871 272.006 135.324 265.075 132.389C266.192 122.962 267.795 113.6 269.878 104.339C269.878 104.339 265.951 74.7479 275.302 69.7289Z" fill="white"/>
<path d="M284.286 58.9416L287.238 59.0688L290.176 58.9416C290.176 58.9416 293.806 68.2162 293.566 68.4141C291.949 69.7862 289.944 70.6168 287.831 70.7893H287.408H287.069H286.631C284.548 70.5997 282.574 69.77 280.981 68.4141C280.656 68.2162 284.286 58.9416 284.286 58.9416Z" fill="#FDC88B"/>
<path d="M286.913 66.1803C286.05 66.2175 285.188 66.0816 284.377 65.7806C283.567 65.4795 282.825 65.0193 282.195 64.4272C283.156 61.8258 284.286 58.9416 284.286 58.9416L287.238 59.0688L290.176 58.9416C290.176 58.9416 291.193 61.5289 292.111 63.9889C291.454 64.7077 290.649 65.2756 289.752 65.6539C288.855 66.0321 287.886 66.2117 286.913 66.1803Z" fill="#FBB065"/>
<path d="M274.116 51.406C274.228 51.1006 274.413 50.8267 274.653 50.6073C274.893 50.3878 275.182 50.2292 275.496 50.1447C275.81 50.0603 276.14 50.0524 276.458 50.1218C276.775 50.1912 277.072 50.3358 277.322 50.5436C278.82 51.6039 277.76 52.9188 278.735 53.9508C279.483 54.7002 278.65 46.3728 281.235 46.1608C281.235 46.1608 284.3 49.158 290.713 49.4125C293.538 49.5256 294.061 52.6219 294.061 53.2863C294.061 53.9508 294.371 54.2902 294.922 53.2863C295.473 52.2825 295.078 51.5474 296.575 50.4587C296.825 50.248 297.123 50.1008 297.442 50.0297C297.762 49.9586 298.094 49.9656 298.41 50.0503C298.726 50.1349 299.017 50.2947 299.258 50.5159C299.499 50.7371 299.684 51.0134 299.796 51.3212C300.191 52.325 300.219 55.3505 298.383 56.524C296.547 57.6974 295.699 56.7785 295.699 56.7785C295.699 56.7785 292.676 64.823 286.984 64.413C281.334 64.823 278.269 56.7785 278.269 56.7785C278.269 56.7785 277.492 57.6833 275.585 56.524C273.678 55.3646 273.706 52.4098 274.116 51.406Z" fill="#FDC88B"/>
<path d="M279.526 68.1172C276.983 68.079 274.469 68.6662 272.206 69.8272C269.942 70.9883 267.998 72.6876 266.544 74.7762C261.685 81.9583 257.829 93.5374 257.829 93.5374C257.829 93.5374 266.686 97.2698 269.327 97.6798C269.327 97.6798 267.095 73.0938 279.526 68.1172Z" fill="#E0E0E0"/>
<path d="M316.505 94.1454C316.505 94.1454 310.276 70.5772 298.891 68.6968C298.592 68.6392 298.286 68.6392 297.987 68.6968C298.545 68.8991 299.069 69.1851 299.541 69.5451C308.256 74.2248 305.403 100.239 304.979 103.759C306.618 107.704 308.171 111.295 309.217 113.656C301.363 114.9 286.955 132.035 286.955 132.035C286.955 132.035 317.268 130.622 322.565 125.687C322.989 125.212 323.371 124.701 323.709 124.16C326.831 118.251 322.056 104.452 316.505 94.1454Z" fill="#FDC88B"/>
<path d="M295.219 68.0041C297.762 67.9659 300.275 68.5531 302.539 69.7141C304.802 70.8752 306.746 72.5746 308.2 74.6631C313.045 81.8311 316.901 93.4102 316.901 93.4102C316.901 93.4102 308.214 97.2699 305.601 97.6516C305.53 97.6799 307.395 72.91 295.219 68.0041Z" fill="#E0E0E0"/>
<path d="M261.771 130.07C261.818 131.193 262.309 132.251 263.135 133.012C263.962 133.772 265.056 134.174 266.178 134.128H309.345C310.461 134.166 311.548 133.761 312.368 133.001C313.189 132.241 313.676 131.188 313.723 130.07V103.208C313.707 102.65 313.58 102.1 313.351 101.591C313.122 101.081 312.795 100.623 312.388 100.24C311.981 99.858 311.503 99.5599 310.98 99.3632C310.458 99.1664 309.902 99.0748 309.345 99.0937H266.178C265.618 99.071 265.059 99.1598 264.533 99.3548C264.008 99.5498 263.526 99.8473 263.116 100.23C262.706 100.613 262.376 101.073 262.145 101.584C261.914 102.095 261.787 102.647 261.771 103.208V130.07Z" fill="black"/>
<path d="M261.771 130.07C261.818 131.193 262.309 132.251 263.135 133.012C263.962 133.772 265.056 134.174 266.178 134.128H309.345C310.461 134.166 311.548 133.761 312.368 133.001C313.189 132.241 313.676 131.188 313.723 130.07V103.208C313.707 102.65 313.58 102.1 313.351 101.591C313.122 101.081 312.795 100.623 312.388 100.24C311.981 99.858 311.503 99.5599 310.98 99.3632C310.458 99.1664 309.902 99.0748 309.345 99.0937H266.178C265.618 99.071 265.059 99.1598 264.533 99.3548C264.008 99.5498 263.526 99.8473 263.116 100.23C262.706 100.613 262.376 101.073 262.145 101.584C261.914 102.095 261.787 102.647 261.771 103.208V130.07Z" fill="#2C68B6"/>
<path d="M261.771 130.07C261.818 131.193 262.309 132.251 263.135 133.012C263.962 133.772 265.056 134.174 266.178 134.128H309.345C310.461 134.166 311.548 133.761 312.368 133.001C313.189 132.241 313.676 131.188 313.723 130.07V103.208C313.707 102.65 313.58 102.1 313.351 101.591C313.122 101.081 312.795 100.623 312.388 100.24C311.981 99.858 311.503 99.5599 310.98 99.3632C310.458 99.1664 309.902 99.0748 309.345 99.0937H266.178C265.618 99.071 265.059 99.1598 264.533 99.3548C264.008 99.5498 263.526 99.8473 263.116 100.23C262.706 100.613 262.376 101.073 262.145 101.584C261.914 102.095 261.787 102.647 261.771 103.208V130.07Z" fill="#CE2576"/>
<path d="M285.006 116.074C285.074 116.638 285.303 117.172 285.667 117.609C286.03 118.047 286.512 118.37 287.055 118.54C287.598 118.71 288.178 118.72 288.725 118.568C289.273 118.416 289.766 118.108 290.143 117.683C290.521 117.258 290.768 116.732 290.855 116.17C290.941 115.608 290.864 115.032 290.631 114.513C290.399 113.993 290.022 113.552 289.545 113.242C289.069 112.932 288.512 112.767 287.944 112.765C287.117 112.816 286.344 113.193 285.793 113.813C285.243 114.433 284.96 115.245 285.006 116.074Z" fill="#D7C9E3"/>
<path d="M338.272 333.347C338.272 333.347 338.272 325.133 339.685 322.037C341.097 318.941 345.18 312.465 349.897 311.136C352.525 310.401 354.855 300.024 348.979 296.871C343.103 293.718 333.343 297.422 333.343 297.422C333.343 297.422 321.845 290.269 313.934 315.915C307.112 338.027 293.255 347.344 294.526 354.611C295.797 361.878 296.687 362.726 302.45 361.128C308.214 359.531 338.272 333.347 338.272 333.347Z" fill="#214081"/>
<path d="M329.571 380.667C334.473 384.753 361.933 376.737 361.933 376.737C361.933 376.737 367.724 377.09 369.927 375.323C372.131 373.556 372.498 372.001 372.117 370.304C371.735 368.608 370.874 367.166 369.052 367.024C368.01 366.987 366.98 367.252 366.085 367.788C366.085 367.788 358.684 370.205 357.709 370.431C355.364 370.955 332.057 368.862 331.761 368.099C331.761 368.113 324.67 376.567 329.571 380.667Z" fill="#FDC88B"/>
<path d="M344.417 345.28C344.248 340.84 342.708 334.549 337.496 334.69C325.56 335.016 327.071 370.587 327.071 370.587C326.943 373.133 327.253 375.682 327.99 378.123C328.153 378.945 328.544 379.704 329.12 380.314V380.399C329.347 380.694 329.632 380.939 329.957 381.119C330.283 381.299 330.642 381.41 331.012 381.445C338.527 383.566 359.814 377.811 359.814 377.811L357.709 370.417C356.297 370.742 346.776 370.064 339.7 369.314C339.7 369.343 344.657 349.719 344.417 345.28Z" fill="#43BBEC"/>
<path d="M324.472 382.237C311.166 396.375 319.43 407.883 322.255 419.844C325.08 431.805 324.317 434.42 324.317 434.42C324.317 434.42 321.125 439.694 323.145 452.206C325.164 464.718 329.967 488.696 329.967 488.696L337.256 489.955L341.974 438.803L343.471 384.866L324.472 382.237Z" fill="#1F3669"/>
<path d="M322.269 441.687L341.437 387.015L315.531 380.837C304.415 389.32 310.475 404.745 309.514 417.002C308.554 429.26 307.028 431.508 307.028 431.508C307.028 431.508 302.381 435.551 300.46 448.078C298.539 460.604 295.812 484.936 295.812 484.936L302.353 488.357L322.269 441.687Z" fill="#214081"/>
<path d="M329.967 488.696L337.34 489.05C339.306 490.169 341.194 491.421 342.99 492.796C344.469 493.968 345.884 495.219 347.228 496.543H329.119C329.119 496.543 329.359 489.375 329.967 488.696Z" fill="#1F3669"/>
<path d="M296.207 482.574L302.818 485.826C304.165 487.629 305.392 489.518 306.491 491.481C307.367 493.149 308.154 494.863 308.85 496.614L292.394 489.446C292.394 489.446 295.374 482.942 296.207 482.574Z" fill="#1F3669"/>
<path d="M342.708 336.118C342.708 336.118 351.183 340.049 352.426 349.069C352.846 351.512 352.412 354.025 351.198 356.185C349.983 358.345 348.063 360.021 345.759 360.931L342.708 336.118Z" fill="#43BBEC"/>
<path d="M328.47 327.805C325.938 327.251 323.31 327.321 320.812 328.011C318.314 328.701 316.022 329.989 314.132 331.764C307.917 337.857 315.545 360.931 315.545 360.931L309.188 387.029C315.432 389.052 321.879 390.379 328.413 390.988C333.738 391.452 339.092 391.452 344.417 390.988C344.417 390.988 348.768 358.343 347.369 345.294C346.423 336.486 345.66 338.324 344.219 335.397C340.095 326.971 328.47 327.805 328.47 327.805Z" fill="#43BBEC"/>
<path d="M346.889 363.744C342.425 362.033 337.524 365.158 335.899 366.303L335.8 365.935C333.54 366.741 310.149 367.349 309.768 366.685C309.768 366.685 303.722 375.903 309.061 379.409C314.401 382.915 337.594 373.004 337.594 373.004L337.34 371.972C338.979 373.217 343.894 373.273 344.261 371.859C344.629 370.445 340.462 372.128 342.016 369.937C343.569 367.745 349.078 371.548 350.491 370.983C351.903 370.417 352.327 365.822 346.889 363.744Z" fill="#FDC88B"/>
<path d="M323.822 339.313C323.13 334.917 319.26 326.674 311.547 332.81C302.196 340.247 305.403 369.696 305.403 369.696C305.575 372.236 306.181 374.728 307.197 377.062C307.466 377.857 307.956 378.558 308.609 379.084V379.155C308.868 379.424 309.18 379.636 309.525 379.777C309.871 379.919 310.242 379.986 310.615 379.975C318.313 381.205 338.781 372.99 338.781 372.99L335.716 365.921C334.303 366.43 324.825 366.854 317.706 366.953C317.819 366.968 324.514 343.682 323.822 339.313Z" fill="#52C9F2"/>
<path d="M368.36 353.749L349.008 375.592H368.049L388.559 353.423L368.36 353.749Z" fill="black"/>
<path d="M368.36 353.749L349.008 375.592H368.049L388.559 353.423L368.36 353.749Z" fill="#2C68B6"/>
<path d="M368.36 353.749L349.008 375.592H368.049L388.559 353.423L368.36 353.749Z" fill="#CE2576"/>
<path d="M372.173 370.601C372.173 370.601 370.549 367.674 367.936 368.41C365.323 369.145 368.727 374.8 368.727 374.8C368.727 374.8 372.145 373.528 372.173 370.601Z" fill="#FDC88B"/>
<path d="M335.391 320.566L334.416 332.273C334.416 332.273 326.789 333.192 324.529 329.869C322.269 326.547 329.19 319.252 329.19 319.252L335.391 320.566Z" fill="#FDC88B"/>
<path d="M327.989 321.344C329.915 323.374 332.356 324.841 335.052 325.585L335.462 320.566L331.422 315.675L327.989 321.344Z" fill="#FBB065"/>
<path d="M344.799 306.428C344.799 306.428 346.805 322.39 340.194 324.101C335.024 325.444 329.219 319.252 329.219 319.252C329.219 319.252 337.383 303.092 344.799 306.428Z" fill="#FDC88B"/>
<path d="M335.377 313.497C335.349 314.099 335.142 314.679 334.78 315.161C334.419 315.643 333.921 316.005 333.351 316.199C332.781 316.394 332.166 316.411 331.586 316.25C331.005 316.09 330.487 315.757 330.098 315.297C329.71 314.837 329.469 314.27 329.407 313.671C329.345 313.071 329.464 312.467 329.751 311.937C330.037 311.407 330.476 310.975 331.011 310.699C331.546 310.422 332.152 310.314 332.749 310.387C333.128 310.412 333.499 310.513 333.838 310.684C334.177 310.855 334.478 311.093 334.724 311.383C334.969 311.673 335.153 312.01 335.265 312.374C335.378 312.737 335.415 313.119 335.377 313.497Z" fill="#FDC88B"/>
<path d="M329.218 319.252C329.218 319.252 322.481 329.784 324.204 335.072C325.927 340.36 321.986 337.787 317.565 335.68C313.144 333.573 306.66 336.952 303.863 342.749C301.067 348.546 306.448 330.378 314.881 326.646C319.817 324.499 324.607 322.029 329.218 319.252Z" fill="#214081"/>
<path d="M133.611 431.734C129.472 436.343 101.984 432.413 101.984 432.413C101.984 432.413 96.4895 433.544 94.1306 432.172C91.7717 430.801 91.2067 429.345 91.3055 427.648C91.4044 425.952 92.0683 424.453 93.8057 424.085C95.1979 423.967 96.5996 424.126 97.9303 424.552L96.7438 424.396C96.7438 424.396 96.7438 422.502 99.018 422.898C103.157 423.619 104.202 425.725 105.162 425.725C107.493 425.923 129.571 420.692 129.769 419.929C129.797 419.985 137.75 427.139 133.611 431.734Z" fill="#FDC88B"/>
<path d="M152.553 406.3C152.553 406.3 152.553 406.3 152.553 406.215C152 404.603 150.859 403.259 149.358 402.451C147.858 401.644 146.109 401.433 144.459 401.86C140.674 403.161 134.318 413.609 134.318 413.609C131.803 417.144 130.179 419.773 129.769 419.985L129.67 420.084C128.102 421.06 107.197 425.344 104.951 425.16L103.312 433.176C103.312 433.176 125.277 435.834 132.114 432.724C136.168 431.07 141.197 426.121 145.434 420.622C148.204 417.505 150.455 413.963 152.101 410.131V410.018C152.228 409.707 152.327 409.396 152.412 409.113V408.972C152.483 408.731 152.535 408.485 152.567 408.237C152.575 408.185 152.575 408.133 152.567 408.081C152.663 407.591 152.663 407.087 152.567 406.597C152.652 406.413 152.624 406.356 152.553 406.3Z" fill="#5D53A3"/>
<path d="M72.8021 427.38H100.869C101.078 427.367 101.281 427.309 101.464 427.209C101.648 427.109 101.806 426.969 101.929 426.8C102.052 426.631 102.136 426.437 102.175 426.232C102.214 426.026 102.207 425.815 102.154 425.612L95.2472 403.656C95.1548 403.382 94.9807 403.143 94.7484 402.971C94.516 402.799 94.2365 402.702 93.9477 402.694H66.8271C66.6207 402.704 66.4188 402.758 66.2358 402.854C66.0527 402.95 65.8929 403.085 65.7677 403.25C65.6424 403.414 65.5547 403.604 65.5108 403.806C65.4669 404.008 65.4678 404.218 65.5135 404.419L71.4885 426.376C71.5744 426.66 71.7475 426.91 71.9833 427.09C72.2191 427.27 72.5056 427.371 72.8021 427.38Z" fill="black"/>
<path d="M72.8021 427.38H100.869C101.078 427.367 101.281 427.309 101.464 427.209C101.648 427.109 101.806 426.969 101.929 426.8C102.052 426.631 102.136 426.437 102.175 426.232C102.214 426.026 102.207 425.815 102.154 425.612L95.2472 403.656C95.1548 403.382 94.9807 403.143 94.7484 402.971C94.516 402.799 94.2365 402.702 93.9477 402.694H66.8271C66.6207 402.704 66.4188 402.758 66.2358 402.854C66.0527 402.95 65.8929 403.085 65.7677 403.25C65.6424 403.414 65.5547 403.604 65.5108 403.806C65.4669 404.008 65.4678 404.218 65.5135 404.419L71.4885 426.376C71.5744 426.66 71.7475 426.91 71.9833 427.09C72.2191 427.27 72.5056 427.371 72.8021 427.38Z" fill="#2C68B6"/>
<path d="M72.8021 427.38H100.869C101.078 427.367 101.281 427.309 101.464 427.209C101.648 427.109 101.806 426.969 101.929 426.8C102.052 426.631 102.136 426.437 102.175 426.232C102.214 426.026 102.207 425.815 102.154 425.612L95.2472 403.656C95.1548 403.382 94.9807 403.143 94.7484 402.971C94.516 402.799 94.2365 402.702 93.9477 402.694H66.8271C66.6207 402.704 66.4188 402.758 66.2358 402.854C66.0527 402.95 65.8929 403.085 65.7677 403.25C65.6424 403.414 65.5547 403.604 65.5108 403.806C65.4669 404.008 65.4678 404.218 65.5135 404.419L71.4885 426.376C71.5744 426.66 71.7475 426.91 71.9833 427.09C72.2191 427.27 72.5056 427.371 72.8021 427.38Z" fill="#CE2576"/>
<path d="M73.4516 425.655H100.078L93.3965 404.433H67.6885L73.4516 425.655Z" fill="#52C9F2"/>
<path d="M104.033 429.458L143.923 445.886L143.768 448.714L149.644 461.353C149.644 461.353 150.11 478.319 136.931 475.18C127.199 472.819 116.28 460.717 112.014 456.886C103.977 449.675 100.389 448.007 99.5131 447.668C96.9853 450.169 94.1741 452.366 91.1368 454.214C80.119 461.113 61.0781 475.576 61.0781 475.576L51.1904 472.169L88.7778 430.603C93.2273 425.867 104.033 429.458 104.033 429.458Z" fill="#1F3669"/>
<path d="M84.9632 464.096H85.274H85.5989L142.481 456.857L142.623 458.271L158.161 456.857C158.161 456.857 164.065 486.18 135.913 487.184C130.687 487.367 127.028 486.802 124.613 485.77C118.864 484.441 113.016 482.377 107.521 481.783C97.9726 480.765 94.8085 481.246 92.4072 481.514C92.4072 481.514 87.4634 485.445 74.4681 485.006C61.4728 484.568 36.4569 482.744 36.4569 482.744L34.2393 475.477L84.9632 464.096Z" fill="#214081"/>
<path d="M38.8024 482.659L36.7259 475.35C35.1599 473.645 33.4798 472.048 31.6973 470.571C30.185 469.372 28.6102 468.253 26.9795 467.221L31.1041 485.247C31.1041 485.247 38.2797 483.423 38.8024 482.659Z" fill="#214081"/>
<path d="M142.002 392.713C142.002 392.713 145.307 401.026 145.392 402.991C144.632 403.608 143.758 404.068 142.82 404.345C141.882 404.622 140.898 404.709 139.926 404.603C134.897 404.292 134.883 403.189 134.883 403.189C134.883 403.189 135.194 400.263 135.25 396.912C135.341 395.665 135.217 394.412 134.883 393.208L142.002 392.713Z" fill="#FDC88B"/>
<path d="M128.71 382.01C128.71 382.01 125.221 395.569 130.744 397.774C134.982 399.499 140.137 394.947 140.137 394.947C140.137 394.947 135.476 379.932 128.71 382.01Z" fill="#FDC88B"/>
<path d="M135.745 394.989C137.585 395.626 139.559 395.776 141.474 395.424C143.39 395.073 145.182 394.232 146.677 392.983C148.172 391.734 149.319 390.119 150.007 388.296C150.695 386.473 150.901 384.502 150.604 382.576C149.658 377.486 147.214 377.119 147.214 377.119C147.214 377.119 145.392 367.802 133.88 370.898C125.843 373.075 123.526 381.388 129.205 387.284C134.883 393.179 135.745 394.989 135.745 394.989Z" fill="#214081"/>
<path d="M139.036 401.521C139.036 401.521 148.782 397.675 153.768 406.059C156.17 410.089 154.729 436.937 154.729 436.937L159.842 467.249C159.842 467.249 148.923 476.198 141.479 469.907C128.244 458.596 119.854 459.643 119.854 459.643C119.854 459.643 123.258 436.371 121.93 419.66C121.252 411.022 125.249 409.269 127.58 407.035C131.563 403.189 139.036 401.521 139.036 401.521Z" fill="#43BBEC"/>
<path d="M113.977 436.866C109.302 440.924 83.6221 433.176 83.6221 433.176C80.6041 432.879 77.6231 432.283 74.7231 431.395C72.2088 430.32 71.7709 429.302 72.11 427.662C72.449 426.022 74.4406 427.153 76.2204 427.182C80.3309 427.252 79.2009 426.093 79.2009 426.093C78.6183 425.897 78.1199 425.508 77.7883 424.99C77.2939 424.142 78.5652 423.138 80.8253 423.831C84.8369 425.061 85.6279 427.252 86.5743 427.45C88.8626 427.931 111.421 425.471 111.703 424.736C111.59 424.679 118.653 432.752 113.977 436.866Z" fill="#FDC88B"/>
<path d="M135.956 413.906C135.956 413.906 135.956 413.835 135.956 413.807C135.598 412.142 134.629 410.671 133.24 409.687C131.851 408.703 130.144 408.276 128.456 408.491C124.543 409.311 116.944 418.911 116.944 418.911C114.02 422.106 112.07 424.566 111.647 424.679L111.534 424.75C109.867 425.527 88.5941 427.21 86.3905 426.743L83.7773 434.491C83.7773 434.491 105.234 439.849 112.409 437.601C116.647 436.456 122.297 432.172 127.128 427.238C130.253 424.484 132.919 421.248 135.024 417.652V417.554C135.179 417.273 135.321 416.985 135.448 416.691C135.453 416.649 135.453 416.606 135.448 416.564C135.543 416.329 135.623 416.088 135.688 415.843V415.701C135.822 415.214 135.856 414.704 135.787 414.203C135.863 414.117 135.921 414.016 135.956 413.906Z" fill="#43BBEC"/>
<path d="M82.9151 408.364L89.3845 410.371C92.2095 419.971 86.7431 421.682 86.7431 421.682C86.7431 421.682 80.3443 419.943 77.5898 410.371L82.9151 408.364Z" fill="#F5FBFE"/>
<path d="M121.252 247.006L121.393 260.663C121.393 265.456 134.021 269.146 149.503 269.062C164.984 268.977 177.499 264.82 177.442 260.084L177.301 246.426" fill="#CE2576"/>
<path d="M123.244 243.768C122.683 244.116 122.211 244.589 121.865 245.151C121.519 245.713 121.309 246.349 121.252 247.006C121.252 251.799 133.88 255.489 149.361 255.404C164.843 255.319 177.358 251.163 177.301 246.426C177.236 245.818 177.038 245.231 176.721 244.708C176.403 244.185 175.975 243.739 175.465 243.401" fill="#9C1053"/>
<path d="M121.04 226.449L121.181 240.107C121.181 244.9 133.809 248.674 149.291 248.505C164.772 248.335 177.287 244.263 177.23 239.527L177.089 225.884" fill="#CE2576"/>
<path d="M123.032 223.212C122.476 223.565 122.008 224.04 121.663 224.601C121.318 225.162 121.105 225.794 121.04 226.449C121.04 231.256 133.753 235.017 149.149 234.847C164.546 234.678 177.146 230.606 177.089 225.884C177.021 225.274 176.821 224.687 176.504 224.162C176.187 223.638 175.76 223.188 175.253 222.844" fill="#9C1053"/>
<path d="M120.828 206.317L120.969 219.96C120.969 224.767 133.682 228.528 149.079 228.372C164.475 228.217 177.075 224.131 177.019 219.394L176.891 205.737" fill="#CE2576"/>
<path d="M176.891 205.737C176.891 210.53 164.432 214.559 148.951 214.715C133.469 214.87 120.884 211.11 120.827 206.317C120.771 201.524 133.286 197.495 148.767 197.339C164.249 197.184 176.834 200.944 176.891 205.737Z" fill="#9C1053"/>
<path d="M76.6299 267.888L76.8135 284.854C76.8135 290.792 92.4502 295.457 111.618 295.259C130.786 295.061 146.268 290.085 146.211 284.147L146.042 267.181" fill="#F354A0"/>
<path d="M79.1013 263.873C78.4101 264.31 77.8271 264.898 77.3964 265.594C76.9657 266.29 76.6986 267.074 76.6152 267.888C76.6152 273.826 92.2661 278.477 111.434 278.28C130.602 278.082 146.083 273.119 146.027 267.167C145.947 266.412 145.7 265.684 145.305 265.036C144.909 264.388 144.374 263.836 143.739 263.42" fill="#CE2576"/>
<path d="M76.376 242.439L76.5455 259.405C76.6161 265.343 92.1963 269.995 111.35 269.811C130.504 269.627 146.014 264.636 145.943 258.684L145.774 241.718" fill="#F354A0"/>
<path d="M78.8479 238.424C78.1572 238.861 77.5753 239.449 77.1468 240.145C76.7184 240.841 76.4547 241.626 76.376 242.44C76.376 248.377 92.0268 253.043 111.181 252.845C130.335 252.647 145.83 247.671 145.774 241.733C145.694 240.979 145.449 240.252 145.056 239.604C144.663 238.956 144.131 238.404 143.499 237.986" fill="#CE2576"/>
<path d="M76.1211 217.514L76.2906 234.48C76.3612 240.418 91.9414 245.083 111.095 244.885C130.249 244.688 145.745 239.711 145.688 233.773L145.519 216.807" fill="#F354A0"/>
<path d="M145.491 216.793C145.491 222.731 130.066 227.708 110.898 227.906C91.7296 228.103 76.1494 223.452 76.0929 217.514C76.0364 211.576 91.5178 206.585 110.686 206.402C129.854 206.218 145.491 210.855 145.491 216.793Z" fill="#CE2576"/>
<path d="M170.534 258.189C170.546 262.571 169.258 266.857 166.834 270.505C164.41 274.153 160.959 277 156.918 278.684C152.877 280.369 148.428 280.815 144.133 279.968C139.839 279.12 135.892 277.015 132.793 273.921C129.694 270.827 127.581 266.882 126.723 262.586C125.865 258.29 126.3 253.835 127.972 249.786C129.645 245.737 132.48 242.276 136.119 239.841C139.758 237.406 144.037 236.106 148.414 236.106C154.271 236.106 159.889 238.43 164.036 242.57C168.182 246.71 170.519 252.327 170.534 258.189Z" fill="#CE2576"/>
<path d="M157.921 253.609H139.841C139.164 253.612 138.516 253.883 138.037 254.362C137.558 254.841 137.288 255.49 137.284 256.168V271.366C137.288 272.044 137.558 272.692 138.037 273.171C138.516 273.65 139.164 273.921 139.841 273.925H157.921C158.599 273.925 159.25 273.655 159.729 273.175C160.209 272.696 160.478 272.045 160.478 271.366V256.168C160.474 255.49 160.204 254.841 159.725 254.362C159.246 253.883 158.598 253.612 157.921 253.609Z" fill="#E0E0E0"/>
<path d="M156.692 253.609H154.446V246.002C154.446 244.806 153.972 243.659 153.127 242.813C152.282 241.967 151.135 241.492 149.94 241.492H147.765C146.57 241.492 145.424 241.967 144.579 242.813C143.734 243.659 143.259 244.806 143.259 246.002V253.566H140.999V246.002C141.003 244.209 141.717 242.49 142.986 241.223C144.254 239.956 145.973 239.244 147.765 239.244H149.94C153.669 239.244 156.692 242.27 156.692 246.78V253.609Z" fill="#E0E0E0"/>
<path d="M153.16 267.831L150.335 263.024C150.978 262.686 151.489 262.142 151.787 261.479C152.085 260.816 152.152 260.073 151.978 259.367C151.804 258.661 151.399 258.034 150.827 257.586C150.255 257.138 149.55 256.894 148.824 256.894C148.098 256.894 147.392 257.138 146.821 257.586C146.249 258.034 145.844 258.661 145.67 259.367C145.496 260.073 145.563 260.816 145.861 261.479C146.158 262.142 146.669 262.686 147.312 263.024L144.487 267.831C144.177 268.355 144.487 268.793 145.052 268.793H152.553C153.217 268.793 153.471 268.355 153.16 267.831Z" fill="#001733"/>
<path d="M785 53.7155C784.998 50.7107 784.209 47.7582 782.711 45.1493C781.213 42.5403 779.058 40.3649 776.458 38.8375C773.858 37.31 770.904 36.4833 767.885 36.4388C764.867 36.3943 761.888 37.1336 759.244 38.5837V38.4514C759.223 30.1802 756.221 22.191 750.783 15.9367C745.345 9.68235 737.832 5.57814 729.611 4.37031C721.391 3.16248 713.007 4.93124 705.986 9.35498C698.964 13.7787 693.771 20.5637 691.35 28.4762C688.232 27.1757 684.885 26.5112 681.505 26.5222C674.741 26.5222 668.253 29.1969 663.47 33.9577C658.687 38.7186 656 45.1757 656 51.9085V60.9583C656 65.478 657.804 69.8127 661.015 73.0086C664.226 76.2045 668.58 78 673.121 78H767.864C770.112 78 772.337 77.5591 774.414 76.7025C776.49 75.8459 778.377 74.5904 779.965 73.0077C781.554 71.425 782.814 69.5463 783.673 67.4787C784.531 65.4112 784.972 63.1955 784.97 60.9583L785 53.7155Z" fill="#001733"/>
<path d="M710.503 41.1434C710.508 39.4618 710.074 37.808 709.244 36.3458C708.415 34.8836 707.218 33.6636 705.772 32.8066C704.326 31.9497 702.682 31.4854 701.002 31.4598C699.323 31.4341 697.665 31.8481 696.194 32.6606V32.5899C696.196 27.962 694.534 23.4879 691.514 19.9842C688.493 16.4805 684.314 14.181 679.74 13.5054C675.166 12.8298 670.501 13.8232 666.598 16.3042C662.695 18.7852 659.814 22.5884 658.48 27.0195C656.757 26.2972 654.908 25.9271 653.041 25.9309C649.295 25.9309 645.702 27.4204 643.053 30.0718C640.404 32.7232 638.916 36.3193 638.916 40.0689V45.1728C638.916 47.6963 639.918 50.1164 641.7 51.9008C643.483 53.6852 645.901 54.6877 648.422 54.6877H701.039C703.553 54.6765 705.96 53.669 707.734 51.8859C709.507 50.1027 710.503 47.6889 710.503 45.1728V41.1434Z" fill="black"/>
<path d="M710.503 41.1434C710.508 39.4618 710.074 37.808 709.244 36.3458C708.415 34.8836 707.218 33.6636 705.772 32.8066C704.326 31.9497 702.682 31.4854 701.002 31.4598C699.323 31.4341 697.665 31.8481 696.194 32.6606V32.5899C696.196 27.962 694.534 23.4879 691.514 19.9842C688.493 16.4805 684.314 14.181 679.74 13.5054C675.166 12.8298 670.501 13.8232 666.598 16.3042C662.695 18.7852 659.814 22.5884 658.48 27.0195C656.757 26.2972 654.908 25.9271 653.041 25.9309C649.295 25.9309 645.702 27.4204 643.053 30.0718C640.404 32.7232 638.916 36.3193 638.916 40.0689V45.1728C638.916 47.6963 639.918 50.1164 641.7 51.9008C643.483 53.6852 645.901 54.6877 648.422 54.6877H701.039C703.553 54.6765 705.96 53.669 707.734 51.8859C709.507 50.1027 710.503 47.6889 710.503 45.1728V41.1434Z" fill="#2C68B6"/>
<path d="M710.503 41.1434C710.508 39.4618 710.074 37.808 709.244 36.3458C708.415 34.8836 707.218 33.6636 705.772 32.8066C704.326 31.9497 702.682 31.4854 701.002 31.4598C699.323 31.4341 697.665 31.8481 696.194 32.6606V32.5899C696.196 27.962 694.534 23.4879 691.514 19.9842C688.493 16.4805 684.314 14.181 679.74 13.5054C675.166 12.8298 670.501 13.8232 666.598 16.3042C662.695 18.7852 659.814 22.5884 658.48 27.0195C656.757 26.2972 654.908 25.9271 653.041 25.9309C649.295 25.9309 645.702 27.4204 643.053 30.0718C640.404 32.7232 638.916 36.3193 638.916 40.0689V45.1728C638.916 47.6963 639.918 50.1164 641.7 51.9008C643.483 53.6852 645.901 54.6877 648.422 54.6877H701.039C703.553 54.6765 705.96 53.669 707.734 51.8859C709.507 50.1027 710.503 47.6889 710.503 45.1728V41.1434Z" fill="#CE2576"/>
</svg>
