<svg viewBox="0 0 674 495" fill="none" xmlns="http://www.w3.org/2000/svg">
<path d="M79.3442 473.306C78.7646 473.332 78.1908 473.18 77.7005 472.87C77.2103 472.56 76.8273 472.106 76.6034 471.571C76.3796 471.036 76.3257 470.445 76.4491 469.878C76.5725 469.312 76.8672 468.796 77.2933 468.403C77.3646 468.119 77.4158 467.916 77.4872 467.632C76.9325 466.224 75.9696 465.013 74.7219 464.155C73.4742 463.297 71.9986 462.831 70.4843 462.816C68.9699 462.802 67.4858 463.24 66.2222 464.074C64.9585 464.909 63.9729 466.101 63.3917 467.499C60.0378 475.347 55.697 483.47 57.8558 492.114C43.5965 461.905 48.4458 424.329 69.5189 398.495C75.3438 395.288 80.065 389.589 81.2941 382.972C78.4113 383.949 74.8171 381.605 76.9846 378.57C77.9241 377.409 78.8727 376.258 79.8121 375.098C68.8614 363.441 55.8139 381.762 67.8674 397.497C63.9243 402.438 60.5089 407.778 57.6767 413.43C58.3308 407.429 57.5502 401.358 55.3991 395.717C53.2191 390.46 49.1329 386.033 45.5345 381.488C41.1594 375.951 32.1549 378.505 31.5661 385.533C35.6038 386.859 36.1283 392.689 31.5097 393.487C32.7194 406.56 41.2635 418.574 53.0311 424.307C48.6855 436.495 46.9886 449.469 48.0535 462.365C45.9764 447.294 29.7923 443.637 18.4804 437.647C17.7604 437.185 16.9216 436.943 16.0664 436.95C15.2111 436.957 14.3763 437.212 13.6639 437.685C12.9514 438.158 12.392 438.828 12.054 439.614C11.716 440.399 11.614 441.266 11.7603 442.108C13.3216 442.743 14.8159 443.531 16.2214 444.46C16.8799 444.903 17.3854 445.538 17.6685 446.279C17.9517 447.02 17.9986 447.831 17.8029 448.6C17.6072 449.368 17.1784 450.058 16.5754 450.573C15.9723 451.089 15.2245 451.405 14.4344 451.48C20.1363 465.586 34.8781 475.058 50.0188 475.005C51.4738 481.325 53.582 487.477 56.3093 493.361H78.7811C78.8617 493.112 78.9342 492.854 79.0067 492.605C76.9267 492.735 74.8384 492.611 72.7886 492.234C78.2918 485.721 82.5478 482.399 79.3449 473.306L79.3442 473.306Z" fill="#E0E0E0"/>
<path d="M198.464 475.876H207.731L212.139 440.152L198.463 440.153L198.464 475.876Z" fill="#FFB6B6"/>
<path d="M210.814 476.71V470.431L208.378 470.58L198.463 471.167L196.168 471.308L194.413 492.337L194.319 493.464H200.898L201.11 492.344L202.065 487.256L204.532 492.344L205.073 493.464H222.515C223.553 493.457 224.546 493.042 225.28 492.307C226.013 491.573 226.427 490.579 226.431 489.542C227.167 486.105 212.662 478.675 210.814 476.71Z" fill="#2F2E41"/>
<path d="M89.915 465.795L97.9735 470.365L119.445 441.469L107.55 434.723L89.915 465.795Z" fill="#FFB6B6"/>
<path d="M100.247 472.608L103.341 467.151L101.164 466.078L92.2427 461.702L90.175 460.684L80.0167 475.551L77.6279 479.043L80.33 480.577L83.3454 482.292L87.4338 477.469L86.9795 484.351L101.226 492.438H101.234L102.15 492.955C103.055 493.466 104.126 493.597 105.127 493.32C106.129 493.042 106.979 492.379 107.492 491.475C109.826 488.845 100.882 475.238 100.247 472.608Z" fill="#2F2E41"/>
<path d="M232.713 179.595C231.53 179.776 230.401 180.211 229.403 180.871C228.405 181.532 227.563 182.4 226.934 183.418C226.305 184.435 225.904 185.577 225.76 186.765C225.616 187.952 225.732 189.157 226.099 190.295L211.921 202.562L217.277 212.993L237.056 195.388C238.927 194.628 240.454 193.207 241.347 191.396C242.24 189.586 242.438 187.51 241.903 185.564C241.367 183.617 240.136 181.934 238.442 180.834C236.749 179.734 234.71 179.293 232.713 179.595Z" fill="#FFB6B6"/>
<path d="M217.784 212.537L212.458 202.101L211.91 201.028C206.208 203.033 195.008 209.578 189.902 212.921C188.03 210.314 177.621 198.969 168.622 194.616C168.622 194.609 168.614 194.616 168.614 194.616C167.995 194.319 167.384 194.053 166.781 193.818C165.387 193.258 163.905 192.95 162.403 192.91C161.737 192.906 161.075 193.001 160.437 193.192C159.767 193.388 159.139 193.709 158.589 194.139C157.124 195.266 156.012 197.231 155.385 200.269C155.313 201.711 155.501 203.153 155.941 204.528C158.448 212.834 168.348 222.112 171.848 228.093C172.193 229.017 175.631 238.114 181.059 241.34C181.345 241.513 181.64 241.67 181.944 241.81C182.281 241.856 182.618 241.896 182.97 241.911H182.978C183.528 241.951 184.08 241.959 184.631 241.935C184.913 241.927 185.202 241.903 185.492 241.88C185.555 241.872 185.61 241.872 185.672 241.864C187.48 241.664 189.263 241.276 190.99 240.706C191.186 240.643 191.382 240.58 191.578 240.51C193.062 240.004 194.519 239.419 195.94 238.756C196.763 238.38 197.577 237.973 198.392 237.551C199.378 237.034 200.365 236.486 201.329 235.914C202.159 235.437 202.973 234.936 203.772 234.419V234.411C203.96 234.302 204.148 234.176 204.336 234.043H204.344C211.487 229.401 217.314 224.006 218.434 221.775C219.271 220.53 219.949 219.187 220.455 217.775L217.784 212.537Z" fill="#2F80ED"/>
<path d="M185.368 249.25C185.368 249.25 205.004 271.334 200.068 276.267C195.132 281.201 187.451 282.497 187.451 282.497L178.062 281.773L185.368 249.25Z" fill="#2F2E41"/>
<path d="M161.28 190.006C186.606 204.818 195.122 218.967 183.409 247.44L161.28 190.006Z" fill="#2F2E41"/>
<path d="M138.576 308.415C136.521 307.46 131.418 384.528 131.001 386.464L101.736 440.982L143.391 459.646L170.78 364.585L175.344 399.568L169.258 455.083L196.183 461.592L214.806 460.262L201.872 302.221L177.329 257.736L138.576 308.415Z" fill="#2F80ED"/>
<path d="M159.096 192.189C193.484 217.781 185.087 218.237 185.367 257.736L201.753 301.508C201.753 301.508 143.988 323.871 138.065 309.07C132.142 294.269 159.096 192.189 159.096 192.189Z" fill="black"/>
<path d="M159.096 192.189C193.484 217.781 185.087 218.237 185.367 257.736L201.753 301.508C201.753 301.508 143.988 323.871 138.065 309.07C132.142 294.269 159.096 192.189 159.096 192.189Z" fill="#2C68B6"/>
<path d="M159.096 192.189C193.484 217.781 185.087 218.237 185.367 257.736L201.753 301.508C201.753 301.508 143.988 323.871 138.065 309.07C132.142 294.269 159.096 192.189 159.096 192.189Z" fill="#CE2576"/>
<path d="M185.813 245.7C185.743 245.45 185.656 245.16 185.562 244.855V244.847C185.414 244.354 185.241 243.814 185.038 243.195C184.912 242.804 184.779 242.381 184.63 241.935C184.536 241.653 184.442 241.363 184.341 241.058C181.584 232.736 176.023 217.219 169.271 200.065V200.058C168.457 197.998 167.627 195.919 166.781 193.818C166.703 193.63 166.632 193.434 166.554 193.246C166.217 192.409 165.872 191.563 165.528 190.718L155.636 180.83L150.302 177.354L138.554 188.197C138.554 188.197 138.562 188.385 138.577 188.753C138.742 192.095 139.548 210.149 139.65 231.491C139.674 236.869 139.658 242.459 139.564 248.073V248.221C139.541 249.693 139.564 250.836 139.635 251.76C139.669 252.417 139.744 253.07 139.862 253.717C140.3 256.129 141.107 256.692 141.538 261.711C141.538 261.711 132.296 273.619 137.661 283.812C138.086 283.875 138.516 283.902 138.945 283.89C140.841 283.921 145.258 283.804 157.406 283.796C159.513 283.781 161.847 283.781 164.439 283.788C181.427 283.788 172.271 273.963 181.349 265.014C181.545 264.819 181.74 264.631 181.952 264.443C182.596 263.86 183.276 263.319 183.988 262.822L185.508 258.109L185.993 256.598L186.001 256.403L186.048 254.312L186.15 250.147L186.22 247.376C186.132 246.807 185.995 246.247 185.813 245.7Z" fill="#2F80ED"/>
<path opacity="0.2" d="M143.531 214.648L140.833 231.48L159.097 239.01L143.531 214.648Z" fill="black"/>
<path d="M170.506 140.642C190.938 152.264 174.165 182.927 153.352 172.008C132.922 160.387 149.695 129.724 170.506 140.642Z" fill="#FFB6B6"/>
<path opacity="0.2" d="M131.969 247.013C142.803 259.776 161.265 261.619 175.287 253.054L131.969 247.013Z" fill="black"/>
<path d="M181.431 147.086C179.999 148.947 177.008 148.074 171.151 149.403C171.164 147.418 170.934 145.439 170.468 143.51C170.032 145.899 169.077 148.162 167.67 150.142C162.584 150.705 168.819 166.15 166.215 177.505C162.86 153.549 155.802 159.826 159.368 164.577C161.65 167.619 160.129 176.745 153.281 172.182C141.984 177.549 125.893 150.888 143.727 138.385C143.408 131.626 150.931 130.559 155.564 132.637C166.807 124.265 179.651 134.992 181.431 147.086Z" fill="black"/>
<path d="M192.97 234.327C198.777 234.211 229.969 233.316 235.084 233.536C235.373 232.524 245.07 244.945 245.305 245.022C245.463 245.188 245.577 245.389 245.64 245.609C245.702 245.829 245.71 246.06 245.664 246.284C245.617 246.508 245.517 246.717 245.372 246.893C245.228 247.07 245.042 247.209 244.832 247.298C244.262 247.645 193.976 246.715 193.367 246.836C193.103 246.832 192.846 246.753 192.626 246.609C192.405 246.466 192.229 246.262 192.119 246.023L191.783 245.271C191.748 243.983 191.326 237.404 191.705 236.279C191.612 236.068 191.573 235.837 191.591 235.607C191.61 235.377 191.685 235.156 191.811 234.962C191.936 234.768 192.108 234.609 192.31 234.498C192.512 234.387 192.739 234.328 192.97 234.327Z" fill="#3F3D56"/>
<path opacity="0.17" d="M191.782 245.27C192.077 245.978 192.455 246.869 193.367 246.836L244.3 247.408C244.541 247.405 244.777 247.34 244.986 247.22C245.195 247.1 245.369 246.928 245.492 246.721C245.615 246.514 245.683 246.279 245.689 246.038C245.695 245.797 245.639 245.559 245.526 245.346L191.782 245.27Z" fill="black"/>
<path d="M234.846 233.384C235.394 232.436 249.011 165.085 250.148 164.522L259.445 153.154L260.276 152.529C261.431 151.895 264.203 152.324 263.953 154.088C261.769 164.555 247.721 224.171 247.413 233.466L245.722 245.307C245.692 245.508 245.62 245.701 245.51 245.873C245.401 246.045 245.257 246.192 245.087 246.305C244.917 246.418 244.726 246.494 244.525 246.528C244.324 246.563 244.118 246.554 243.921 246.504C243.436 246.452 242.973 246.275 242.578 245.989C242.183 245.704 241.869 245.32 241.667 244.877C241.54 244.459 234.209 233.627 234.846 233.384Z" fill="#3F3D56"/>
<path opacity="0.17" d="M259.447 153.154L241.665 244.879C242.26 246.383 245.042 247.437 245.69 245.464C245.702 245.461 263.932 154.144 263.951 154.089C264.145 151.892 260.512 151.822 259.447 153.154Z" fill="black"/>
<path d="M258.911 156.905L249.881 169.487L239.744 217.609L244.456 221.717L258.911 156.905Z" fill="black"/>
<path d="M258.911 156.905L249.881 169.487L239.744 217.609L244.456 221.717L258.911 156.905Z" fill="#2C68B6"/>
<path d="M258.911 156.905L249.881 169.487L239.744 217.609L244.456 221.717L258.911 156.905Z" fill="#CE2576"/>
<path d="M198.392 237.551C198.204 236.094 197.844 234.756 196.787 234.858C195.228 234.85 195.565 236.971 195.941 238.756C196.141 239.461 196.262 240.186 196.301 240.917L198.799 240.815C198.577 239.74 198.441 238.648 198.392 237.551Z" fill="#2F2E41"/>
<path d="M213.117 237.206C213.101 236.791 213.125 236.259 213.07 235.758C212.984 234.928 212.702 234.207 211.754 234.262C211.579 234.26 211.406 234.295 211.245 234.364C210.234 234.818 210.65 236.658 210.634 237.55L211.448 237.519L213.132 237.456C213.125 237.378 213.117 237.292 213.117 237.206Z" fill="#2F2E41"/>
<path d="M218.105 237.003C218.066 235.907 218.262 233.973 216.743 234.059C215.098 234.09 215.638 236.329 215.623 237.355L216.429 237.324L218.121 237.253C218.113 237.175 218.105 237.089 218.105 237.003Z" fill="#2F2E41"/>
<path d="M223.095 236.807C223.056 235.703 223.251 233.769 221.732 233.863C220.087 233.894 220.628 236.134 220.612 237.151L221.426 237.12L223.11 237.057C223.103 236.979 223.095 236.893 223.095 236.807Z" fill="#2F2E41"/>
<path d="M228.084 236.603C228.045 235.507 228.241 233.573 226.721 233.66C225.076 233.699 225.617 235.93 225.601 236.956L226.408 236.924L228.1 236.854C228.092 236.775 228.084 236.689 228.084 236.603Z" fill="#2F2E41"/>
<path d="M233.072 236.408C233.041 235.421 233.19 233.777 232.14 233.503H232.133C231.995 233.464 231.852 233.451 231.71 233.464C231.593 233.462 231.477 233.478 231.365 233.511H231.357C230.151 233.847 230.605 235.813 230.59 236.752L231.404 236.721L233.088 236.658C233.08 236.58 233.072 236.494 233.072 236.408Z" fill="#2F2E41"/>
<path d="M203.773 234.419V234.411C203.76 234.295 203.739 234.18 203.71 234.067C203.585 233.401 203.264 232.884 202.457 232.931C201.666 232.947 201.384 233.464 201.298 234.121C201.257 234.719 201.267 235.319 201.329 235.914C201.337 236.032 201.337 236.133 201.337 236.227L203.836 236.126C203.796 235.687 203.836 235.03 203.773 234.419Z" fill="#2F2E41"/>
<path d="M208.723 233.941C208.597 233.245 208.276 232.681 207.446 232.736C206.624 232.751 206.349 233.315 206.279 234.004C206.257 234.678 206.273 235.352 206.326 236.024L208.824 235.922C208.777 235.421 208.84 234.615 208.723 233.941Z" fill="#2F2E41"/>
<path d="M213.719 233.824C213.609 233.088 213.304 232.485 212.435 232.532C211.581 232.548 211.322 233.151 211.26 233.879C211.243 234.04 211.237 234.202 211.244 234.364C211.252 234.904 211.322 235.452 211.315 235.828L213.069 235.758L213.813 235.726C213.766 235.241 213.829 234.482 213.719 233.824Z" fill="#2F2E41"/>
<path d="M202.41 237.425C200.765 237.457 201.298 239.696 201.29 240.713L203.789 240.619C203.695 239.594 204.055 237.323 202.41 237.425Z" fill="#2F2E41"/>
<path d="M207.399 237.222C205.755 237.253 206.287 239.492 206.279 240.518L208.778 240.416C208.684 239.398 209.044 237.128 207.399 237.222Z" fill="#2F2E41"/>
<path d="M213.116 237.206C212.902 237.063 212.644 236.999 212.388 237.026C212.201 237.016 212.015 237.056 211.849 237.143C211.684 237.23 211.545 237.36 211.448 237.519C211.001 238.24 211.275 239.586 211.268 240.314L213.766 240.22C213.688 239.39 213.915 237.731 213.116 237.206Z" fill="#2F2E41"/>
<path d="M218.105 237.002C217.892 236.858 217.633 236.794 217.377 236.822C217.188 236.812 217 236.853 216.833 236.941C216.666 237.029 216.526 237.162 216.429 237.323C215.998 238.052 216.265 239.39 216.257 240.118L218.755 240.017C218.677 239.195 218.904 237.543 218.105 237.002Z" fill="#2F2E41"/>
<path d="M223.094 236.807C222.88 236.663 222.622 236.6 222.366 236.627C222.179 236.616 221.993 236.657 221.828 236.743C221.662 236.83 221.524 236.96 221.426 237.12C220.98 237.84 221.254 239.187 221.246 239.915L223.745 239.821C223.666 238.991 223.893 237.331 223.094 236.807Z" fill="#2F2E41"/>
<path d="M228.084 236.603C227.87 236.459 227.612 236.395 227.355 236.423C227.167 236.411 226.978 236.452 226.811 236.54C226.644 236.629 226.504 236.761 226.408 236.924C225.977 237.652 226.243 238.991 226.235 239.719L228.734 239.617C228.656 238.795 228.883 237.143 228.084 236.603Z" fill="#2F2E41"/>
<path d="M233.073 236.407C232.859 236.264 232.601 236.2 232.344 236.227C232.158 236.216 231.971 236.256 231.806 236.343C231.64 236.43 231.501 236.56 231.404 236.721C230.966 237.449 231.232 238.787 231.224 239.515L233.723 239.422C233.644 238.592 233.872 236.94 233.073 236.407Z" fill="#2F2E41"/>
<path d="M129.009 129.605C124.46 157.561 100.079 124.464 88.6148 151.975C85.0104 161.939 91.1946 169.066 95.1064 177.336C95.9992 184.132 87.1542 187.58 86.2277 193.836C85.9699 208.178 109.118 207.301 115.59 198.252C122.239 188.779 114.299 176.07 118.295 165.903C123.913 151.787 146.757 151.682 148.747 135.259C144.893 129.773 134.529 123.489 129.009 129.605Z" fill="black"/>
<path d="M344.356 493.665C343.755 495.444 0.648385 495.444 0 493.669C0.600194 491.886 343.707 491.886 344.356 493.665Z" fill="#CCCCCC"/>
<path d="M147.436 132.337C147.287 132.4 147.138 132.462 147.005 132.533H146.997C146.872 132.595 146.747 132.658 146.621 132.728C146.606 132.736 146.598 132.744 146.582 132.752C146.418 132.595 146.253 132.439 146.081 132.282C146.037 132.537 146.047 132.799 146.112 133.049L146.136 133.143C146.293 133.308 146.457 133.464 146.629 133.629C146.786 133.511 146.935 133.386 147.091 133.269C147.185 133.19 147.279 133.112 147.381 133.034C147.397 132.83 147.42 132.595 147.444 132.337H147.436ZM152.151 123.631C148.658 122.833 147.53 127.397 147.193 129.597C145.924 121.611 140.646 124.124 142.47 129.573C143.052 131.187 143.968 132.659 145.157 133.895C145.321 134.083 145.501 134.271 145.689 134.459C145.478 135.555 146.543 135.273 147.984 134.263C149.048 133.506 150.033 132.643 150.921 131.687C153.796 128.673 156.036 124.641 152.151 123.631ZM152.261 128.125C151.183 129.514 149.974 130.796 148.65 131.953C148.235 132.329 147.812 132.689 147.381 133.034C147.373 133.104 147.373 133.167 147.366 133.222C147.335 133.298 147.299 133.371 147.256 133.441C146.817 134.232 146.324 133.801 146.136 133.143C146.12 133.12 146.097 133.096 146.081 133.073C145.455 132.427 144.911 131.706 144.46 130.928C141.225 125.322 146.434 121.51 146.175 131.977C146.127 132.073 146.096 132.176 146.081 132.282C146.037 132.537 146.047 132.799 146.112 133.049L146.136 133.143C146.293 133.308 146.457 133.464 146.629 133.629C146.786 133.511 146.935 133.386 147.091 133.269C147.185 133.19 147.279 133.112 147.381 133.034C147.397 132.83 147.42 132.595 147.444 132.337V132.329C147.648 130.231 148.204 126.458 149.23 125.432C151.485 123.702 154.407 125.573 152.261 128.125ZM147.436 132.337C147.287 132.4 147.138 132.462 147.005 132.533H146.997C146.872 132.595 146.747 132.658 146.621 132.728C146.606 132.736 146.598 132.744 146.582 132.752C146.418 132.595 146.253 132.439 146.081 132.282C146.037 132.537 146.047 132.799 146.112 133.049L146.136 133.143C146.293 133.308 146.457 133.464 146.629 133.629C146.786 133.511 146.935 133.386 147.091 133.269C147.185 133.19 147.279 133.112 147.381 133.034C147.397 132.83 147.42 132.595 147.444 132.337H147.436Z" fill="#2F2E41"/>
<path d="M265.553 199.741C264.411 199.741 263.315 200.194 262.507 201.002C261.699 201.809 261.246 202.905 261.246 204.047V245.702H178.616C177.474 245.702 176.378 246.155 175.57 246.963C174.762 247.77 174.309 248.866 174.309 250.008C174.309 251.15 174.762 252.245 175.57 253.052C176.378 253.86 177.474 254.313 178.616 254.313H261.246V493.88H269.861V204.047C269.861 202.905 269.407 201.809 268.599 201.002C267.791 200.194 266.696 199.741 265.553 199.741Z" fill="#E6E6E6"/>
<path d="M194.189 242.899C193.387 242.012 192.401 241.31 191.3 240.841C190.199 240.373 189.009 240.149 187.813 240.185C186.617 240.221 185.443 240.516 184.373 241.05C183.302 241.585 182.36 242.345 181.612 243.279L163.559 238.212L157.803 248.428L183.399 255.225C185.065 256.366 187.092 256.857 189.096 256.604C191.1 256.351 192.941 255.372 194.271 253.853C195.601 252.334 196.328 250.379 196.313 248.36C196.297 246.342 195.542 244.398 194.189 242.899L194.189 242.899Z" fill="#FFB6B6"/>
<path d="M153.913 230.896C152.605 230.215 151.297 229.549 150.021 228.931C147.248 227.561 144.671 226.363 142.776 225.549C143.707 222.726 144.445 219.844 144.985 216.921C147.209 205.71 148.721 188.236 138.578 188.753C137.11 188.858 135.67 189.207 134.317 189.786C126.415 194.178 123.705 211.645 120.165 218.855C119.546 219.693 113.264 228.399 114.275 234.842C117.141 241.105 126.258 246.46 134.803 249.944L134.811 249.952C136.455 250.625 138.085 251.228 139.635 251.76C141.405 252.363 143.089 252.864 144.601 253.256C147.616 254.038 149.974 254.391 151.109 254.234C152.61 254.245 154.107 254.071 155.566 253.717L157.359 250.555L158.464 248.597L164.236 238.404L164.831 237.355C161.356 234.937 157.707 232.778 153.913 230.896Z" fill="#2F80ED"/>
<path d="M546.547 285.456C528.642 292.76 508.404 298.327 485.628 301.756C470.824 303.944 455.899 305.21 440.938 305.545C427.842 305.874 414.053 305.579 399.568 304.66V18.0497C399.57 16.6142 400.142 15.2383 401.159 14.224C402.175 13.2097 403.552 12.6399 404.988 12.6399L407.15 12.6477L415.82 12.6712H415.969L648.725 13.2506H649.782L658.194 13.274C659.4 17.1572 660.523 21.1578 661.562 25.2759C682.521 108.49 667.044 236.298 546.547 285.456Z" fill="#F2F2F2"/>
<path d="M451.486 133.264C451.625 142.746 436.724 142.746 436.863 133.263C436.725 123.781 451.626 123.781 451.486 133.264Z" fill="black"/>
<path d="M451.486 133.264C451.625 142.746 436.724 142.746 436.863 133.263C436.725 123.781 451.626 123.781 451.486 133.264Z" fill="#2C68B6"/>
<path d="M451.486 133.264C451.625 142.746 436.724 142.746 436.863 133.263C436.725 123.781 451.626 123.781 451.486 133.264Z" fill="#CE2576"/>
<path d="M580.17 145.098H439.043C438.466 145.098 437.913 145.327 437.506 145.735C437.098 146.142 436.869 146.695 436.869 147.271C436.869 147.847 437.098 148.4 437.506 148.807C437.913 149.214 438.466 149.443 439.043 149.443H580.17C583.029 149.49 582.958 145.051 580.17 145.098Z" fill="#CCCCCC"/>
<path d="M529.997 153.695H439.043C438.465 153.695 437.911 153.924 437.503 154.332C437.095 154.74 436.865 155.294 436.865 155.871C436.865 156.448 437.095 157.002 437.503 157.41C437.911 157.818 438.465 158.047 439.043 158.047H529.997C532.841 158.087 532.794 153.655 529.997 153.695Z" fill="#CCCCCC"/>
<path d="M580.17 80.5093H439.043C438.465 80.5093 437.911 80.7386 437.503 81.1468C437.095 81.5549 436.865 82.1085 436.865 82.6857C436.865 83.263 437.095 83.8166 437.503 84.2247C437.911 84.6329 438.465 84.8622 439.043 84.8622H580.17C583.029 84.9013 582.958 80.4701 580.17 80.5093Z" fill="#CCCCCC"/>
<path d="M529.997 89.1133H439.043C438.465 89.1133 437.911 89.3426 437.503 89.7508C437.095 90.1589 436.865 90.7125 436.865 91.2897C436.865 91.867 437.095 92.4206 437.503 92.8287C437.911 93.2369 438.465 93.4662 439.043 93.4662H529.997C532.841 93.5053 532.794 89.0742 529.997 89.1133Z" fill="#CCCCCC"/>
<path d="M529.997 98.1243H439.043C438.465 98.1243 437.911 98.3536 437.503 98.7617C437.095 99.1699 436.865 99.7235 436.865 100.301C436.865 100.878 437.095 101.432 437.503 101.84C437.911 102.248 438.465 102.477 439.043 102.477H529.997C532.841 102.516 532.794 98.0851 529.997 98.1243Z" fill="#CCCCCC"/>
<path d="M451.486 189.585C451.625 199.067 436.724 199.067 436.863 189.584C436.725 180.102 451.626 180.102 451.486 189.585Z" fill="black"/>
<path d="M451.486 189.585C451.625 199.067 436.724 199.067 436.863 189.584C436.725 180.102 451.626 180.102 451.486 189.585Z" fill="#2C68B6"/>
<path d="M451.486 189.585C451.625 199.067 436.724 199.067 436.863 189.584C436.725 180.102 451.626 180.102 451.486 189.585Z" fill="#CE2576"/>
<path d="M580.17 201.412H439.043C438.465 201.412 437.911 201.641 437.503 202.049C437.095 202.458 436.865 203.011 436.865 203.588C436.865 204.166 437.095 204.719 437.503 205.127C437.911 205.536 438.465 205.765 439.043 205.765H580.17C583.029 205.804 582.958 201.373 580.17 201.412Z" fill="#CCCCCC"/>
<path d="M529.997 210.016H439.043C438.465 210.016 437.911 210.245 437.503 210.653C437.095 211.062 436.865 211.615 436.865 212.192C436.865 212.77 437.095 213.323 437.503 213.731C437.911 214.139 438.465 214.369 439.043 214.369H529.997C532.841 214.408 532.794 209.977 529.997 210.016Z" fill="#CCCCCC"/>
<path d="M449.162 68.7373C449.3 78.1489 434.51 78.149 434.648 68.7366C434.511 59.3257 449.301 59.3256 449.162 68.7373Z" fill="black"/>
<path d="M449.162 68.7373C449.3 78.1489 434.51 78.149 434.648 68.7366C434.511 59.3257 449.301 59.3256 449.162 68.7373Z" fill="#2C68B6"/>
<path d="M449.162 68.7373C449.3 78.1489 434.51 78.149 434.648 68.7366C434.511 59.3257 449.301 59.3256 449.162 68.7373Z" fill="#CE2576"/>
<path d="M652.433 14.3026C651.31 13.1764 406.14 16.4688 406.419 13.1636C405.213 11.9172 659.156 9.0664 652.433 14.3026Z" fill="#CACACA"/>
<path d="M394.507 25.2832C401.492 25.2832 407.154 19.6233 407.154 12.6416C407.154 5.65983 401.492 0 394.507 0C387.522 0 381.86 5.65983 381.86 12.6416C381.86 19.6233 387.522 25.2832 394.507 25.2832Z" fill="#CACACA"/>
<path d="M661.353 25.2832C668.337 25.2832 674 19.6233 674 12.6416C674 5.65983 668.337 0 661.353 0C654.368 0 648.706 5.65983 648.706 12.6416C648.706 19.6233 654.368 25.2832 661.353 25.2832Z" fill="#CACACA"/>
<path d="M546.547 285.456C528.642 292.76 508.404 298.327 485.628 301.756C470.824 303.944 455.899 305.21 440.938 305.545C427.467 305.388 413.677 305.094 399.568 304.66V294.671C418.561 278.739 499.937 276.194 546.547 285.456Z" fill="#CACACA"/>
</svg>
